<svg width="31" height="31" viewBox="0 0 31 31" fill="none" xmlns="http://www.w3.org/2000/svg">
<path fill-rule="evenodd" clip-rule="evenodd" d="M9.64229 1.37688C11.1574 1.30713 11.6405 1.29163 15.5 1.29163C19.3595 1.29163 19.8426 1.30842 21.3564 1.37688C22.8702 1.44533 23.9036 1.68688 24.8077 2.03692C25.7545 2.39471 26.6135 2.954 27.3239 3.67733C28.0472 4.38646 28.6052 5.24413 28.9617 6.19221C29.3131 7.09638 29.5533 8.12971 29.6231 9.64096C29.6928 11.1587 29.7083 11.6417 29.7083 15.5C29.7083 19.3595 29.6915 19.8425 29.6231 21.3577C29.5546 22.8689 29.3131 23.9022 28.9617 24.8064C28.6052 25.7546 28.0463 26.6137 27.3239 27.3239C26.6135 28.0472 25.7545 28.6052 24.8077 28.9617C23.9036 29.313 22.8702 29.5533 21.359 29.623C19.8426 29.6928 19.3595 29.7083 15.5 29.7083C11.6405 29.7083 11.1574 29.6915 9.64229 29.623C8.13104 29.5546 7.09771 29.313 6.19354 28.9617C5.24535 28.6052 4.38627 28.0462 3.67608 27.3239C2.95324 26.6143 2.39386 25.7556 2.03696 24.8077C1.68692 23.9035 1.44667 22.8702 1.37692 21.359C1.30717 19.8412 1.29167 19.3582 1.29167 15.5C1.29167 11.6405 1.30846 11.1574 1.37692 9.64354C1.44537 8.12971 1.68692 7.09638 2.03696 6.19221C2.39439 5.24423 2.95419 4.38557 3.67737 3.67604C4.38655 2.95336 5.24478 2.39399 6.19225 2.03692C7.09642 1.68688 8.12975 1.44663 9.641 1.37688H9.64229ZM21.2415 3.93438C19.7431 3.86592 19.2936 3.85171 15.5 3.85171C11.7064 3.85171 11.2569 3.86592 9.75854 3.93438C8.37258 3.99767 7.62083 4.22888 7.11967 4.42392C6.45704 4.68225 5.983 4.98838 5.48571 5.48567C5.01431 5.94428 4.65152 6.50257 4.42396 7.11963C4.22892 7.62079 3.99771 8.37254 3.93442 9.7585C3.86596 11.2568 3.85175 11.7063 3.85175 15.5C3.85175 19.2936 3.86596 19.7431 3.93442 21.2414C3.99771 22.6274 4.22892 23.3791 4.42396 23.8803C4.65129 24.4964 5.01425 25.0557 5.48571 25.5142C5.94425 25.9857 6.50354 26.3487 7.11967 26.576C7.62083 26.771 8.37258 27.0022 9.75854 27.0655C11.2569 27.134 11.7051 27.1482 15.5 27.1482C19.2949 27.1482 19.7431 27.134 21.2415 27.0655C22.6274 27.0022 23.3792 26.771 23.8803 26.576C24.543 26.3177 25.017 26.0115 25.5143 25.5142C25.9857 25.0557 26.3487 24.4964 26.576 23.8803C26.7711 23.3791 27.0023 22.6274 27.0656 21.2414C27.134 19.7431 27.1482 19.2936 27.1482 15.5C27.1482 11.7063 27.134 11.2568 27.0656 9.7585C27.0023 8.37254 26.7711 7.62079 26.576 7.11963C26.3177 6.457 26.0116 5.98296 25.5143 5.48567C25.0557 5.0143 24.4974 4.65152 23.8803 4.42392C23.3792 4.22888 22.6274 3.99767 21.2415 3.93438ZM13.6852 19.88C14.6987 20.3019 15.8273 20.3588 16.8781 20.0411C17.9289 19.7234 18.8369 19.0506 19.4468 18.1379C20.0568 17.2251 20.3309 16.1288 20.2224 15.0364C20.1139 13.9439 19.6295 12.923 18.8519 12.1481C18.3562 11.6527 17.7568 11.2734 17.0969 11.0374C16.437 10.8015 15.7331 10.7148 15.0356 10.7836C14.3382 10.8524 13.6647 11.0749 13.0637 11.4353C12.4626 11.7956 11.9489 12.2847 11.5595 12.8673C11.1702 13.45 10.9148 14.1118 10.8119 14.805C10.709 15.4982 10.7611 16.2056 10.9644 16.8762C11.1677 17.5469 11.5171 18.1642 11.9876 18.6836C12.4581 19.2029 13.0379 19.6116 13.6852 19.88ZM10.3359 10.3359C11.0141 9.65772 11.8192 9.11977 12.7052 8.75276C13.5913 8.38574 14.5409 8.19684 15.5 8.19684C16.4591 8.19684 17.4087 8.38574 18.2948 8.75276C19.1808 9.11977 19.9859 9.65772 20.6641 10.3359C21.3422 11.014 21.8802 11.8191 22.2472 12.7052C22.6142 13.5912 22.8031 14.5409 22.8031 15.5C22.8031 16.459 22.6142 17.4087 22.2472 18.2947C21.8802 19.1808 21.3422 19.9859 20.6641 20.664C19.2945 22.0336 17.4369 22.8031 15.5 22.8031C13.5631 22.8031 11.7055 22.0336 10.3359 20.664C8.96631 19.2944 8.19688 17.4369 8.19688 15.5C8.19688 13.5631 8.96631 11.7055 10.3359 10.3359ZM24.4228 9.28446C24.5909 9.12593 24.7254 8.9353 24.8185 8.72384C24.9115 8.51239 24.9612 8.28441 24.9646 8.05341C24.9679 7.82241 24.9249 7.59308 24.8381 7.379C24.7512 7.16493 24.6223 6.97045 24.4589 6.80709C24.2956 6.64373 24.1011 6.51481 23.887 6.42796C23.673 6.34111 23.4436 6.29809 23.2126 6.30146C22.9816 6.30483 22.7537 6.35451 22.5422 6.44757C22.3307 6.54062 22.1401 6.67516 21.9816 6.84321C21.6733 7.17004 21.5045 7.60416 21.511 8.05341C21.5176 8.50266 21.699 8.93168 22.0167 9.24938C22.3344 9.56708 22.7634 9.74846 23.2126 9.75501C23.6619 9.76156 24.096 9.59277 24.4228 9.28446Z" fill="white"/>
</svg>
