<svg width="31" height="31" viewBox="0 0 31 31" fill="none" xmlns="http://www.w3.org/2000/svg">
<g clip-path="url(#clip0_1734_1044)">
<path fill-rule="evenodd" clip-rule="evenodd" d="M0 15.5865C0 23.2926 5.59679 29.7006 12.9167 31V19.8051H9.04167V15.5H12.9167V12.0551C12.9167 8.18012 15.4135 6.02821 18.9449 6.02821C20.0635 6.02821 21.2699 6.2 22.3885 6.37179V10.3333H20.4083C18.5135 10.3333 18.0833 11.2801 18.0833 12.4865V15.5H22.2167L21.5282 19.8051H18.0833V31C25.4032 29.7006 31 23.2939 31 15.5865C31 7.01375 24.025 0 15.5 0C6.975 0 0 7.01375 0 15.5865Z" fill="white"/>
</g>
<defs>
<clipPath id="clip0_1734_1044">
<rect width="31" height="31" fill="white"/>
</clipPath>
</defs>
</svg>
