<svg width="31" height="31" viewBox="0 0 31 31" fill="none" xmlns="http://www.w3.org/2000/svg">
<path fill-rule="evenodd" clip-rule="evenodd" d="M9.64237 1.37694C11.1575 1.30719 11.6406 1.29169 15.5001 1.29169C19.3596 1.29169 19.8427 1.30848 21.3565 1.37694C22.8703 1.4454 23.9037 1.68694 24.8078 2.03698C25.7546 2.39477 26.6136 2.95406 27.324 3.67739C28.0473 4.38652 28.6053 5.24419 28.9618 6.19227C29.3132 7.09644 29.5534 8.12977 29.6232 9.64102C29.6929 11.1587 29.7084 11.6418 29.7084 15.5C29.7084 19.3595 29.6916 19.8426 29.6232 21.3577C29.5547 22.869 29.3132 23.9023 28.9618 24.8065C28.6053 25.7547 28.0464 26.6138 27.324 27.3239C26.6136 28.0473 25.7546 28.6053 24.8078 28.9618C23.9037 29.3131 22.8703 29.5534 21.3591 29.6231C19.8427 29.6929 19.3596 29.7084 15.5001 29.7084C11.6406 29.7084 11.1575 29.6916 9.64237 29.6231C8.13112 29.5546 7.09779 29.3131 6.19362 28.9618C5.24544 28.6052 4.38635 28.0463 3.67616 27.3239C2.95332 26.6144 2.39395 25.7557 2.03704 24.8078C1.687 23.9036 1.44675 22.8703 1.377 21.359C1.30725 19.8413 1.29175 19.3582 1.29175 15.5C1.29175 11.6405 1.30854 11.1574 1.377 9.6436C1.44546 8.12977 1.687 7.09644 2.03704 6.19227C2.39447 5.24429 2.95428 4.38563 3.67746 3.6761C4.38663 2.95342 5.24486 2.39405 6.19233 2.03698C7.0965 1.68694 8.12983 1.44669 9.64108 1.37694H9.64237ZM21.2415 3.93444C19.7432 3.86598 19.2937 3.85177 15.5001 3.85177C11.7065 3.85177 11.257 3.86598 9.75862 3.93444C8.37266 3.99773 7.62091 4.22894 7.11975 4.42398C6.45712 4.68231 5.98308 4.98844 5.48579 5.48573C5.01439 5.94434 4.65161 6.50263 4.42404 7.11969C4.229 7.62085 3.99779 8.3726 3.9345 9.75856C3.86604 11.2569 3.85183 11.7064 3.85183 15.5C3.85183 19.2936 3.86604 19.7431 3.9345 21.2415C3.99779 22.6274 4.229 23.3792 4.42404 23.8804C4.65137 24.4965 5.01433 25.0558 5.48579 25.5143C5.94433 25.9858 6.50362 26.3487 7.11975 26.5761C7.62091 26.7711 8.37266 27.0023 9.75862 27.0656C11.257 27.1341 11.7052 27.1483 15.5001 27.1483C19.295 27.1483 19.7432 27.1341 21.2415 27.0656C22.6275 27.0023 23.3792 26.7711 23.8804 26.5761C24.543 26.3177 25.0171 26.0116 25.5144 25.5143C25.9858 25.0558 26.3488 24.4965 26.5761 23.8804C26.7712 23.3792 27.0024 22.6274 27.0657 21.2415C27.1341 19.7431 27.1483 19.2936 27.1483 15.5C27.1483 11.7064 27.1341 11.2569 27.0657 9.75856C27.0024 8.3726 26.7712 7.62085 26.5761 7.11969C26.3178 6.45706 26.0117 5.98302 25.5144 5.48573C25.0557 5.01436 24.4974 4.65158 23.8804 4.42398C23.3792 4.22894 22.6275 3.99773 21.2415 3.93444V3.93444ZM13.6853 19.8801C14.6988 20.302 15.8274 20.3589 16.8782 20.0412C17.929 19.7234 18.837 19.0507 19.4469 18.1379C20.0569 17.2251 20.331 16.1289 20.2225 15.0364C20.114 13.944 19.6295 12.9231 18.852 12.1481C18.3563 11.6528 17.7569 11.2734 17.097 11.0375C16.4371 10.8016 15.7331 10.7149 15.0357 10.7836C14.3383 10.8524 13.6648 11.075 13.0637 11.4353C12.4627 11.7956 11.949 12.2847 11.5596 12.8674C11.1702 13.4501 10.9149 14.1119 10.812 14.8051C10.7091 15.4983 10.7612 16.2056 10.9644 16.8763C11.1677 17.547 11.5172 18.1642 11.9877 18.6836C12.4582 19.203 13.0379 19.6116 13.6853 19.8801ZM10.336 10.3359C11.0142 9.65778 11.8192 9.11984 12.7053 8.75282C13.5914 8.3858 14.541 8.1969 15.5001 8.1969C16.4591 8.1969 17.4088 8.3858 18.2949 8.75282C19.1809 9.11983 19.986 9.65778 20.6642 10.3359C21.3423 11.0141 21.8803 11.8192 22.2473 12.7052C22.6143 13.5913 22.8032 14.541 22.8032 15.5C22.8032 16.4591 22.6143 17.4087 22.2473 18.2948C21.8803 19.1809 21.3423 19.9859 20.6642 20.6641C19.2946 22.0337 17.437 22.8031 15.5001 22.8031C13.5632 22.8031 11.7056 22.0337 10.336 20.6641C8.9664 19.2945 8.19696 17.4369 8.19696 15.5C8.19696 13.5631 8.9664 11.7055 10.336 10.3359V10.3359ZM24.4229 9.28452C24.591 9.12599 24.7255 8.93536 24.8186 8.7239C24.9116 8.51245 24.9613 8.28447 24.9647 8.05347C24.968 7.82247 24.925 7.59314 24.8382 7.37907C24.7513 7.16499 24.6224 6.97051 24.459 6.80715C24.2957 6.64379 24.1012 6.51487 23.8871 6.42802C23.673 6.34117 23.4437 6.29816 23.2127 6.30152C22.9817 6.30489 22.7537 6.35457 22.5423 6.44763C22.3308 6.54068 22.1402 6.67522 21.9817 6.84327C21.6734 7.1701 21.5046 7.60422 21.5111 8.05347C21.5177 8.50272 21.699 8.93174 22.0167 9.24944C22.3344 9.56714 22.7635 9.74852 23.2127 9.75507C23.662 9.76162 24.0961 9.59283 24.4229 9.28452V9.28452Z" fill="white"/>
</svg>
