<svg width="31" height="31" viewBox="0 0 31 31" fill="none" xmlns="http://www.w3.org/2000/svg">
<path fill-rule="evenodd" clip-rule="evenodd" d="M9.64213 1.37691C11.1573 1.30716 11.6403 1.29166 15.4998 1.29166C19.3593 1.29166 19.8424 1.30845 21.3563 1.37691C22.8701 1.44536 23.9034 1.68691 24.8076 2.03695C25.7544 2.39474 26.6133 2.95403 27.3237 3.67736C28.0471 4.38649 28.6051 5.24416 28.9616 6.19224C29.3129 7.09641 29.5532 8.12974 29.6229 9.64099C29.6927 11.1587 29.7082 11.6418 29.7082 15.5C29.7082 19.3595 29.6914 19.8426 29.6229 21.3577C29.5545 22.8689 29.3129 23.9023 28.9616 24.8064C28.6051 25.7546 28.0462 26.6137 27.3237 27.3239C26.6133 28.0472 25.7544 28.6052 24.8076 28.9617C23.9034 29.3131 22.8701 29.5533 21.3588 29.6231C19.8424 29.6928 19.3593 29.7083 15.4998 29.7083C11.6403 29.7083 11.1573 29.6915 9.64213 29.6231C8.13088 29.5546 7.09754 29.3131 6.19338 28.9617C5.24519 28.6052 4.3861 28.0463 3.67592 27.3239C2.95308 26.6144 2.3937 25.7557 2.0368 24.8077C1.68675 23.9036 1.4465 22.8702 1.37675 21.359C1.307 19.8413 1.2915 19.3582 1.2915 15.5C1.2915 11.6405 1.3083 11.1574 1.37675 9.64357C1.44521 8.12974 1.68675 7.09641 2.0368 6.19224C2.39423 5.24426 2.95403 4.3856 3.67721 3.67607C4.38639 2.95339 5.24461 2.39402 6.19209 2.03695C7.09625 1.68691 8.12959 1.44666 9.64084 1.37691H9.64213ZM21.2413 3.93441C19.743 3.86595 19.2935 3.85174 15.4998 3.85174C11.7062 3.85174 11.2567 3.86595 9.75838 3.93441C8.37242 3.9977 7.62067 4.22891 7.1195 4.42395C6.45688 4.68228 5.98284 4.98841 5.48555 5.4857C5.01414 5.94431 4.65136 6.5026 4.4238 7.11966C4.22875 7.62082 3.99755 8.37257 3.93425 9.75853C3.8658 11.2569 3.85159 11.7064 3.85159 15.5C3.85159 19.2936 3.8658 19.7431 3.93425 21.2414C3.99755 22.6274 4.22875 23.3792 4.4238 23.8803C4.65113 24.4964 5.01409 25.0557 5.48555 25.5143C5.94409 25.9857 6.50338 26.3487 7.1195 26.576C7.62067 26.7711 8.37242 27.0023 9.75838 27.0656C11.2567 27.134 11.7049 27.1482 15.4998 27.1482C19.2948 27.1482 19.743 27.134 21.2413 27.0656C22.6273 27.0023 23.379 26.7711 23.8802 26.576C24.5428 26.3177 25.0168 26.0116 25.5141 25.5143C25.9856 25.0557 26.3485 24.4964 26.5759 23.8803C26.7709 23.3792 27.0021 22.6274 27.0654 21.2414C27.1339 19.7431 27.1481 19.2936 27.1481 15.5C27.1481 11.7064 27.1339 11.2569 27.0654 9.75853C27.0021 8.37257 26.7709 7.62082 26.5759 7.11966C26.3175 6.45703 26.0114 5.98299 25.5141 5.4857C25.0555 5.01433 24.4972 4.65155 23.8802 4.42395C23.379 4.22891 22.6273 3.9977 21.2413 3.93441V3.93441ZM13.685 19.88C14.6986 20.3019 15.8271 20.3589 16.878 20.0411C17.9288 19.7234 18.8367 19.0507 19.4467 18.1379C20.0566 17.2251 20.3307 16.1289 20.2222 15.0364C20.1137 13.944 19.6293 12.9231 18.8517 12.1481C18.356 11.6527 17.7567 11.2734 17.0968 11.0375C16.4369 10.8015 15.7329 10.7148 15.0355 10.7836C14.3381 10.8524 13.6646 11.075 13.0635 11.4353C12.4624 11.7956 11.9487 12.2847 11.5594 12.8674C11.17 13.4501 10.9147 14.1118 10.8118 14.805C10.7088 15.4982 10.7609 16.2056 10.9642 16.8763C11.1675 17.5469 11.517 18.1642 11.9874 18.6836C12.4579 19.203 13.0377 19.6116 13.685 19.88ZM10.3358 10.3359C11.0139 9.65775 11.819 9.11981 12.7051 8.75279C13.5911 8.38577 14.5408 8.19687 15.4998 8.19687C16.4589 8.19687 17.4086 8.38577 18.2946 8.75279C19.1807 9.1198 19.9858 9.65775 20.6639 10.3359C21.3421 11.0141 21.88 11.8192 22.247 12.7052C22.6141 13.5913 22.803 14.5409 22.803 15.5C22.803 16.459 22.6141 17.4087 22.247 18.2948C21.88 19.1808 21.3421 19.9859 20.6639 20.6641C19.2943 22.0337 17.4367 22.8031 15.4998 22.8031C13.5629 22.8031 11.7054 22.0337 10.3358 20.6641C8.96615 19.2945 8.19672 17.4369 8.19672 15.5C8.19672 13.5631 8.96615 11.7055 10.3358 10.3359V10.3359ZM24.4227 9.28449C24.5907 9.12596 24.7253 8.93533 24.8183 8.72387C24.9114 8.51242 24.961 8.28444 24.9644 8.05344C24.9678 7.82244 24.9248 7.59311 24.8379 7.37904C24.7511 7.16496 24.6221 6.97048 24.4588 6.80712C24.2954 6.64376 24.101 6.51484 23.8869 6.42799C23.6728 6.34114 23.4435 6.29812 23.2125 6.30149C22.9815 6.30486 22.7535 6.35454 22.542 6.4476C22.3306 6.54065 22.1399 6.67519 21.9814 6.84324C21.6731 7.17007 21.5043 7.60419 21.5109 8.05344C21.5174 8.50269 21.6988 8.93171 22.0165 9.24941C22.3342 9.56711 22.7632 9.74849 23.2125 9.75504C23.6617 9.76159 24.0958 9.5928 24.4227 9.28449V9.28449Z" fill="white"/>
</svg>
