<svg width="28" height="28" viewBox="0 0 28 28" fill="none" xmlns="http://www.w3.org/2000/svg">
<g clip-path="url(#clip0_1734_1046)">
<path fill-rule="evenodd" clip-rule="evenodd" d="M20.3175 16.779C19.9698 16.6052 18.2653 15.7675 17.948 15.6508C17.6307 15.5353 17.3997 15.4782 17.1675 15.8258C16.9365 16.1712 16.2727 16.9528 16.0708 17.1838C15.8678 17.416 15.666 17.444 15.3195 17.2713C14.973 17.0963 13.8553 16.7312 12.5312 15.5505C11.501 14.6312 10.8045 13.496 10.6027 13.1483C10.4008 12.8018 10.5805 12.614 10.7543 12.4413C10.9107 12.2862 11.1008 12.0365 11.2747 11.8347C11.4485 11.6317 11.5057 11.487 11.6212 11.2548C11.7378 11.0238 11.6795 10.822 11.592 10.6482C11.5057 10.4743 10.8127 8.76749 10.5233 8.07332C10.2422 7.39782 9.95633 7.48999 9.744 7.47832C9.541 7.46899 9.31 7.46665 9.079 7.46665C8.848 7.46665 8.47233 7.55299 8.155 7.90065C7.8365 8.24715 6.94167 9.08599 6.94167 10.7928C6.94167 12.4985 8.183 14.147 8.35683 14.3792C8.53067 14.6102 10.801 18.1125 14.2788 19.614C15.1072 19.971 15.7523 20.1845 16.2552 20.3432C17.0858 20.608 17.8418 20.5707 18.4392 20.4808C19.1042 20.3817 20.4902 19.642 20.7795 18.8323C21.0677 18.0227 21.0677 17.3285 20.9813 17.1838C20.895 17.0392 20.664 16.9528 20.3163 16.779H20.3175ZM13.9918 25.4158H13.9872C11.9215 25.4162 9.89377 24.8609 8.1165 23.8082L7.6965 23.5585L3.33083 24.7042L4.49633 20.4482L4.22217 20.0118C3.06733 18.1736 2.45618 16.0461 2.45933 13.8752C2.46167 7.51682 7.63467 2.34382 13.9965 2.34382C17.0765 2.34382 19.9722 3.54549 22.1492 5.72482C23.2229 6.79416 24.074 8.06581 24.6532 9.4662C25.2323 10.8666 25.528 12.3679 25.5232 13.8833C25.5208 20.2417 20.3478 25.4158 13.9918 25.4158V25.4158ZM23.8058 4.06932C22.5204 2.7754 20.9909 1.74945 19.3061 1.05092C17.6213 0.352395 15.8146 -0.00481666 13.9907 -1.3228e-05C6.34433 -1.3228e-05 0.119 6.22415 0.116667 13.874C0.113124 16.3085 0.75177 18.7009 1.96817 20.8098L0 28L7.35467 26.0703C9.38919 27.1788 11.6691 27.7596 13.986 27.7597H13.9918C21.6382 27.7597 27.8635 21.5355 27.8658 13.8845C27.8715 12.0613 27.5156 10.2551 26.8187 8.57036C26.1218 6.88561 25.0978 5.35577 23.8058 4.06932" fill="white"/>
</g>
<defs>
<clipPath id="clip0_1734_1046">
<rect width="28" height="28" fill="white"/>
</clipPath>
</defs>
</svg>
