<svg width="289" height="289" viewBox="0 0 289 289" fill="none" xmlns="http://www.w3.org/2000/svg">
<path d="M212.286 94.9843L157.339 59.4235L65.3794 134.348L80.7438 191.688L227.65 152.325L212.286 94.9843Z" stroke="#FFF7DC" stroke-width="4" stroke-linecap="round" stroke-linejoin="round"/>
<path d="M65.5063 134.822L147.897 112.745C148.196 112.665 148.502 112.842 148.582 113.141L153.04 129.779C153.52 131.568 154.347 133.245 155.474 134.715C156.602 136.184 158.008 137.417 159.612 138.343C161.216 139.27 162.987 139.871 164.824 140.112C166.66 140.354 168.526 140.232 170.315 139.753V139.753C172.104 139.273 173.782 138.446 175.251 137.318C176.721 136.191 177.954 134.785 178.88 133.181C179.806 131.577 180.407 129.806 180.649 127.969C180.891 126.133 180.768 124.267 180.289 122.478L175.831 105.839C175.751 105.541 175.928 105.234 176.226 105.154L212.413 95.4581" stroke="#FFF7DC" stroke-width="4" stroke-linecap="round" stroke-linejoin="round"/>
<path d="M75.4399 162.416C72.968 164.602 70.7206 166.83 68.7019 169.077C59.3006 179.561 55.0328 190.512 57.6841 200.407C64.3467 225.272 112.179 234.057 164.525 220.031C216.871 206.005 253.903 174.48 247.24 149.615C244.523 139.474 234.966 132.014 221.046 127.678" stroke="#FFF7DC" stroke-width="4"/>
</svg>
