<svg width="171" height="171" viewBox="0 0 171 171" fill="none" xmlns="http://www.w3.org/2000/svg">
<path d="M75.0915 9.44029C76.9515 -2.43287 94.0485 -2.43287 95.9085 9.4403C97.323 18.4694 108.776 21.5383 114.516 14.4261C122.063 5.07365 136.87 13.6221 132.544 24.8346C129.254 33.3613 137.639 41.7457 146.165 38.4561C157.378 34.1304 165.926 48.9368 156.574 56.4842C149.462 62.2238 152.531 73.677 161.56 75.0915C173.433 76.9515 173.433 94.0485 161.56 95.9085C152.531 97.323 149.462 108.776 156.574 114.516C165.926 122.063 157.378 136.87 146.165 132.544C137.639 129.254 129.254 137.639 132.544 146.165C136.87 157.378 122.063 165.926 114.516 156.574C108.776 149.462 97.323 152.531 95.9085 161.56C94.0485 173.433 76.9515 173.433 75.0915 161.56C73.677 152.531 62.2238 149.462 56.4842 156.574C48.9368 165.926 34.1304 157.378 38.4561 146.165C41.7457 137.639 33.3613 129.254 24.8346 132.544C13.6221 136.87 5.07365 122.063 14.4261 114.516C21.5383 108.776 18.4694 97.323 9.44029 95.9085C-2.43287 94.0485 -2.43287 76.9515 9.4403 75.0915C18.4694 73.677 21.5383 62.2237 14.4261 56.4842C5.07365 48.9368 13.6221 34.1304 24.8346 38.4561C33.3613 41.7457 41.7457 33.3613 38.4561 24.8346C34.1304 13.6221 48.9368 5.07365 56.4842 14.4261C62.2237 21.5383 73.677 18.4694 75.0915 9.44029Z" fill="#FCCC24" fill-opacity="0.1"/>
</svg>
