<svg width="94" height="90" viewBox="0 0 94 90" fill="none" xmlns="http://www.w3.org/2000/svg">
<path d="M41.2403 4.90389C42.3156 -1.61208 51.6844 -1.61208 52.7597 4.90389C53.5689 9.80801 59.7465 11.5213 62.9656 7.73421L63.5709 7.02219C67.7557 2.09909 75.6044 6.86002 73.1718 12.846C71.314 17.4177 75.762 22.0238 80.3958 20.3266L81.2603 20.0099C87.2264 17.8248 91.5852 25.7578 86.5416 29.6219C82.6526 32.6014 84.2539 38.7912 89.0998 39.5119C95.4091 40.4503 95.4091 49.5497 89.0998 50.4881C84.2539 51.2088 82.6526 57.3986 86.5416 60.3781C91.5852 64.2422 87.2264 72.1752 81.2603 69.9901L80.3958 69.6734C75.762 67.9763 71.314 72.5823 73.1718 77.154C75.6044 83.14 67.7557 87.9009 63.5709 82.9778L62.9656 82.2658C59.7465 78.4787 53.5689 80.192 52.7597 85.0961C51.6844 91.6121 42.3156 91.6121 41.2403 85.0961C40.4311 80.192 34.2535 78.4787 31.0344 82.2658L30.4291 82.9778C26.2443 87.9009 18.3956 83.14 20.8282 77.154C22.686 72.5823 18.238 67.9762 13.6042 69.6734L12.7397 69.9901C6.77359 72.1752 2.41481 64.2422 7.4584 60.3781C11.3474 57.3986 9.74611 51.2088 4.90021 50.4881C-1.40908 49.5497 -1.40908 40.4503 4.90021 39.5119C9.74611 38.7912 11.3474 32.6014 7.4584 29.6219C2.41481 25.7578 6.77357 17.8248 12.7397 20.0099L13.6042 20.3266C18.238 22.0237 22.686 17.4177 20.8282 12.846C18.3956 6.86002 26.2443 2.09909 30.4291 7.02219L31.0344 7.73421C34.2535 11.5213 40.4311 9.80801 41.2403 4.90389Z" fill="#FCCC24"/>
</svg>
