<svg width="89" height="90" viewBox="0 0 89 90" fill="none" xmlns="http://www.w3.org/2000/svg">
<path d="M39.1276 4.99337C40.0714 -1.15396 48.9286 -1.15396 49.8724 4.99337C50.5929 9.68651 56.5622 11.2644 59.5076 7.54019C63.3595 2.66964 70.9598 7.26519 68.7637 13.0736C67.0798 17.5273 71.4456 21.9505 75.8761 20.2064C81.6928 17.9165 86.0024 25.7403 81.1768 29.714C77.4908 32.7493 79.0403 38.772 83.7553 39.5257C89.9802 40.5208 89.9802 49.4792 83.7553 50.4743C79.0403 51.228 77.4908 57.2507 81.1768 60.286C86.0024 64.2597 81.6928 72.0835 75.8761 69.7936C71.4456 68.0495 67.0798 72.4727 68.7637 76.9264C70.9598 82.7348 63.3595 87.3304 59.5076 82.4598C56.5622 78.7356 50.5929 80.3135 49.8724 85.0066C48.9286 91.154 40.0714 91.154 39.1276 85.0066C38.4071 80.3135 32.4378 78.7356 29.4924 82.4598C25.6405 87.3304 18.0402 82.7348 20.2363 76.9264C21.9202 72.4727 17.5544 68.0495 13.1239 69.7936C7.30724 72.0835 2.9976 64.2597 7.82322 60.286C11.5092 57.2507 9.95971 51.228 5.24469 50.4743C-0.980179 49.4792 -0.980181 40.5208 5.24469 39.5257C9.95971 38.772 11.5092 32.7493 7.82322 29.714C2.9976 25.7403 7.30724 17.9165 13.1239 20.2064C17.5544 21.9505 21.9202 17.5273 20.2363 13.0736C18.0402 7.2652 25.6405 2.66964 29.4924 7.5402C32.4378 11.2644 38.4071 9.68651 39.1276 4.99337Z" fill="#FCCC24"/>
</svg>
