<svg width="29" height="28" viewBox="0 0 29 28" fill="none" xmlns="http://www.w3.org/2000/svg">
<path fill-rule="evenodd" clip-rule="evenodd" d="M8.35062 0.572838C9.86575 0.506851 10.3488 0.492188 14.2083 0.492188C18.0678 0.492188 18.5509 0.508073 20.0647 0.572838C21.5786 0.637602 22.6119 0.866111 23.5161 1.19727C24.4629 1.53575 25.3218 2.06487 26.0322 2.74917C26.7556 3.42003 27.3136 4.23142 27.6701 5.12835C28.0214 5.98373 28.2617 6.96131 28.3314 8.39102C28.4012 9.82683 28.4167 10.2839 28.4167 13.9339C28.4167 17.5851 28.3999 18.0422 28.3314 19.4755C28.263 20.9052 28.0214 21.8828 27.6701 22.7382C27.3136 23.6352 26.7546 24.448 26.0322 25.1198C25.3218 25.8041 24.4629 26.332 23.5161 26.6693C22.6119 27.0017 21.5786 27.2289 20.0673 27.2949C18.5509 27.3609 18.0678 27.3756 14.2083 27.3756C10.3488 27.3756 9.86575 27.3597 8.35062 27.2949C6.83937 27.2302 5.80604 27.0017 4.90187 26.6693C3.95369 26.332 3.0946 25.8032 2.38442 25.1198C1.66157 24.4485 1.1022 23.6362 0.745292 22.7394C0.39525 21.884 0.155 20.9065 0.08525 19.4767C0.0155 18.0409 0 17.5839 0 13.9339C0 10.2826 0.0167916 9.82561 0.08525 8.39346C0.153708 6.96131 0.39525 5.98373 0.745292 5.12835C1.10273 4.23152 1.66253 3.41919 2.38571 2.74795C3.09489 2.06426 3.95311 1.53507 4.90058 1.19727C5.80475 0.866111 6.83808 0.638824 8.34933 0.572838H8.35062ZM19.9498 2.99234C18.4515 2.92758 18.002 2.91414 14.2083 2.91414C10.4147 2.91414 9.96521 2.92758 8.46687 2.99234C7.08092 3.05222 6.32917 3.27095 5.828 3.45547C5.16537 3.69986 4.69133 3.98947 4.19404 4.45993C3.72264 4.89379 3.35986 5.42197 3.13229 6.00573C2.93725 6.47985 2.70604 7.19104 2.64275 8.50222C2.57429 9.9197 2.56008 10.3449 2.56008 13.9339C2.56008 17.5228 2.57429 17.9481 2.64275 19.3655C2.70604 20.6767 2.93725 21.3879 3.13229 21.862C3.35962 22.4449 3.72258 22.974 4.19404 23.4078C4.65258 23.8539 5.21187 24.1972 5.828 24.4123C6.32917 24.5968 7.08092 24.8155 8.46687 24.8754C9.96521 24.9402 10.4134 24.9536 14.2083 24.9536C18.0032 24.9536 18.4515 24.9402 19.9498 24.8754C21.3357 24.8155 22.0875 24.5968 22.5887 24.4123C23.2513 24.1679 23.7253 23.8783 24.2226 23.4078C24.6941 22.974 25.057 22.4449 25.2844 21.862C25.4794 21.3879 25.7106 20.6767 25.7739 19.3655C25.8424 17.9481 25.8566 17.5228 25.8566 13.9339C25.8566 10.3449 25.8424 9.9197 25.7739 8.50222C25.7106 7.19104 25.4794 6.47985 25.2844 6.00573C25.026 5.37885 24.7199 4.93039 24.2226 4.45993C23.764 4.014 23.2057 3.67079 22.5887 3.45547C22.0875 3.27095 21.3357 3.05222 19.9498 2.99234V2.99234ZM12.3935 18.0776C13.4071 18.4767 14.5356 18.5306 15.5864 18.23C16.6373 17.9294 17.5452 17.293 18.1552 16.4294C18.7651 15.5659 19.0392 14.5288 18.9307 13.4953C18.8222 12.4618 18.3378 11.496 17.5602 10.7629C17.0645 10.2942 16.4651 9.93536 15.8053 9.71215C15.1454 9.48894 14.4414 9.40692 13.744 9.47199C13.0466 9.53707 12.3731 9.74762 11.772 10.0885C11.1709 10.4294 10.6572 10.8921 10.2678 11.4433C9.87849 11.9946 9.62316 12.6206 9.52025 13.2764C9.41734 13.9322 9.4694 14.6014 9.6727 15.2359C9.87599 15.8704 10.2255 16.4543 10.6959 16.9457C11.1664 17.4371 11.7462 17.8236 12.3935 18.0776ZM9.04425 9.04844C9.72241 8.40687 10.5275 7.89795 11.4136 7.55074C12.2996 7.20353 13.2493 7.02482 14.2083 7.02482C15.1674 7.02482 16.1171 7.20353 17.0031 7.55074C17.8892 7.89795 18.6943 8.40687 19.3724 9.04844C20.0506 9.69 20.5885 10.4517 20.9555 11.2899C21.3225 12.1281 21.5114 13.0266 21.5114 13.9339C21.5114 14.8412 21.3225 15.7396 20.9555 16.5779C20.5885 17.4161 20.0506 18.1778 19.3724 18.8193C18.0028 20.115 16.1452 20.8429 14.2083 20.8429C12.2714 20.8429 10.4138 20.115 9.04425 18.8193C7.67465 17.5236 6.90522 15.7663 6.90522 13.9339C6.90522 12.1015 7.67465 10.3441 9.04425 9.04844V9.04844ZM23.1312 8.05375C23.2992 7.90378 23.4338 7.72343 23.5268 7.52338C23.6199 7.32334 23.6695 7.10766 23.6729 6.88913C23.6763 6.67059 23.6333 6.45364 23.5464 6.25111C23.4596 6.04858 23.3306 5.8646 23.1673 5.71006C23.0039 5.55551 22.8094 5.43355 22.5954 5.35138C22.3813 5.26922 22.152 5.22852 21.921 5.23171C21.69 5.23489 21.462 5.2819 21.2505 5.36993C21.0391 5.45796 20.8484 5.58524 20.6899 5.74422C20.3816 6.05342 20.2128 6.46411 20.2194 6.88913C20.2259 7.31414 20.4073 7.72001 20.725 8.02057C21.0427 8.32113 21.4717 8.49272 21.921 8.49891C22.3702 8.50511 22.8043 8.34542 23.1312 8.05375V8.05375Z" fill="black"/>
</svg>
