<svg width="28" height="27" viewBox="0 0 28 27" fill="none" xmlns="http://www.w3.org/2000/svg">
<path fill-rule="evenodd" clip-rule="evenodd" d="M20.3175 16.3659C19.9698 16.2014 18.2653 15.409 17.948 15.2986C17.6307 15.1893 17.3997 15.1352 17.1675 15.4642C16.9365 15.7909 16.2727 16.5303 16.0708 16.7489C15.8678 16.9685 15.666 16.995 15.3195 16.8317C14.973 16.6661 13.8553 16.3206 12.5312 15.2037C11.501 14.3339 10.8045 13.26 10.6027 12.9311C10.4008 12.6033 10.5805 12.4256 10.7543 12.2623C10.9107 12.1155 11.1008 11.8793 11.2747 11.6883C11.4485 11.4963 11.5057 11.3594 11.6212 11.1398C11.7378 10.9213 11.6795 10.7303 11.592 10.5659C11.5057 10.4014 10.8127 8.78667 10.5233 8.12995C10.2422 7.4909 9.95633 7.5781 9.744 7.56706C9.541 7.55823 9.31 7.55602 9.079 7.55602C8.848 7.55602 8.47233 7.6377 8.155 7.9666C7.8365 8.29441 6.94167 9.08798 6.94167 10.7027C6.94167 12.3164 8.183 13.8759 8.35683 14.0955C8.53067 14.3141 10.801 17.6274 14.2788 19.0479C15.1072 19.3857 15.7523 19.5876 16.2552 19.7377C17.0858 19.9883 17.8418 19.953 18.4392 19.868C19.1042 19.7742 20.4902 19.0744 20.7795 18.3084C21.0677 17.5425 21.0677 16.8857 20.9813 16.7489C20.895 16.612 20.664 16.5303 20.3163 16.3659H20.3175ZM13.9918 24.5367H13.9872C11.9215 24.5371 9.89377 24.0117 8.1165 23.0158L7.6965 22.7796L3.33083 23.8634L4.49633 19.8371L4.22217 19.4243C3.06733 17.6852 2.45618 15.6725 2.45933 13.6187C2.46167 7.60348 7.63467 2.7096 13.9965 2.7096C17.0765 2.7096 19.9722 3.84643 22.1492 5.90817C23.2229 6.91982 24.074 8.12285 24.6532 9.44768C25.2323 10.7725 25.528 12.1928 25.5232 13.6265C25.5208 19.6417 20.3478 24.5367 13.9918 24.5367V24.5367ZM23.8058 4.342C22.5204 3.11789 20.9909 2.1473 19.3061 1.48646C17.6213 0.825626 15.8146 0.487688 13.9907 0.492233C6.34433 0.492233 0.119 6.38056 0.116667 13.6176C0.113124 15.9208 0.75177 18.1841 1.96817 20.1792L0 26.9814L7.35467 25.1559C9.38919 26.2046 11.6691 26.754 13.986 26.7541H13.9918C21.6382 26.7541 27.8635 20.8657 27.8658 13.6276C27.8715 11.9028 27.5156 10.194 26.8187 8.60017C26.1218 7.00633 25.0978 5.55903 23.8058 4.342" fill="black"/>
</svg>
