<svg width="31" height="31" viewBox="0 0 31 31" fill="none" xmlns="http://www.w3.org/2000/svg">
<path fill-rule="evenodd" clip-rule="evenodd" d="M9.64225 1.37692C11.1574 1.30717 11.6405 1.29167 15.5 1.29167C19.3595 1.29167 19.8425 1.30846 21.3564 1.37692C22.8702 1.44537 23.9035 1.68692 24.8077 2.03696C25.7545 2.39475 26.6135 2.95404 27.3239 3.67737C28.0472 4.3865 28.6052 5.24417 28.9617 6.19225C29.313 7.09642 29.5533 8.12975 29.623 9.641C29.6928 11.1587 29.7083 11.6418 29.7083 15.5C29.7083 19.3595 29.6915 19.8426 29.623 21.3577C29.5546 22.869 29.313 23.9023 28.9617 24.8065C28.6052 25.7547 28.0463 26.6138 27.3239 27.3239C26.6135 28.0472 25.7545 28.6052 24.8077 28.9617C23.9035 29.3131 22.8702 29.5533 21.359 29.6231C19.8425 29.6928 19.3595 29.7083 15.5 29.7083C11.6405 29.7083 11.1574 29.6915 9.64225 29.6231C8.131 29.5546 7.09767 29.3131 6.1935 28.9617C5.24531 28.6052 4.38623 28.0463 3.67604 27.3239C2.9532 26.6144 2.39382 25.7557 2.03692 24.8077C1.68688 23.9036 1.44663 22.8702 1.37688 21.359C1.30713 19.8413 1.29163 19.3582 1.29163 15.5C1.29163 11.6405 1.30842 11.1574 1.37688 9.64358C1.44533 8.12975 1.68688 7.09642 2.03692 6.19225C2.39435 5.24427 2.95415 4.38561 3.67733 3.67608C4.38651 2.9534 5.24474 2.39403 6.19221 2.03696C7.09638 1.68692 8.12971 1.44667 9.64096 1.37692H9.64225ZM21.2414 3.93442C19.7431 3.86596 19.2936 3.85175 15.5 3.85175C11.7063 3.85175 11.2568 3.86596 9.7585 3.93442C8.37254 3.99771 7.62079 4.22892 7.11963 4.42396C6.457 4.68229 5.98296 4.98842 5.48567 5.48571C5.01427 5.94432 4.65148 6.50261 4.42392 7.11967C4.22888 7.62083 3.99767 8.37258 3.93438 9.75854C3.86592 11.2569 3.85171 11.7064 3.85171 15.5C3.85171 19.2936 3.86592 19.7431 3.93438 21.2415C3.99767 22.6274 4.22888 23.3792 4.42392 23.8803C4.65125 24.4965 5.01421 25.0557 5.48567 25.5143C5.94421 25.9857 6.5035 26.3487 7.11963 26.576C7.62079 26.7711 8.37254 27.0023 9.7585 27.0656C11.2568 27.134 11.705 27.1482 15.5 27.1482C19.2949 27.1482 19.7431 27.134 21.2414 27.0656C22.6274 27.0023 23.3791 26.7711 23.8803 26.576C24.5429 26.3177 25.017 26.0116 25.5142 25.5143C25.9857 25.0557 26.3487 24.4965 26.576 23.8803C26.771 23.3792 27.0022 22.6274 27.0655 21.2415C27.134 19.7431 27.1482 19.2936 27.1482 15.5C27.1482 11.7064 27.134 11.2569 27.0655 9.75854C27.0022 8.37258 26.771 7.62083 26.576 7.11967C26.3177 6.45704 26.0115 5.983 25.5142 5.48571C25.0556 5.01434 24.4973 4.65156 23.8803 4.42396C23.3791 4.22892 22.6274 3.99771 21.2414 3.93442V3.93442ZM13.6852 19.88C14.6987 20.3019 15.8272 20.3589 16.8781 20.0411C17.9289 19.7234 18.8368 19.0507 19.4468 18.1379C20.0567 17.2251 20.3309 16.1289 20.2224 15.0364C20.1138 13.944 19.6294 12.9231 18.8518 12.1481C18.3561 11.6527 17.7568 11.2734 17.0969 11.0375C16.437 10.8015 15.733 10.7148 15.0356 10.7836C14.3382 10.8524 13.6647 11.075 13.0636 11.4353C12.4625 11.7956 11.9488 12.2847 11.5595 12.8674C11.1701 13.4501 10.9148 14.1118 10.8119 14.805C10.709 15.4982 10.761 16.2056 10.9643 16.8763C11.1676 17.547 11.5171 18.1642 11.9876 18.6836C12.458 19.203 13.0378 19.6116 13.6852 19.88ZM10.3359 10.3359C11.014 9.65776 11.8191 9.11981 12.7052 8.7528C13.5912 8.38578 14.5409 8.19688 15.5 8.19688C16.459 8.19688 17.4087 8.38578 18.2947 8.7528C19.1808 9.11981 19.9859 9.65776 20.664 10.3359C21.3422 11.0141 21.8801 11.8192 22.2472 12.7052C22.6142 13.5913 22.8031 14.5409 22.8031 15.5C22.8031 16.4591 22.6142 17.4087 22.2472 18.2948C21.8801 19.1808 21.3422 19.9859 20.664 20.6641C19.2944 22.0337 17.4369 22.8031 15.5 22.8031C13.5631 22.8031 11.7055 22.0337 10.3359 20.6641C8.96627 19.2945 8.19684 17.4369 8.19684 15.5C8.19684 13.5631 8.96627 11.7055 10.3359 10.3359V10.3359ZM24.4228 9.2845C24.5908 9.12597 24.7254 8.93534 24.8184 8.72388C24.9115 8.51243 24.9612 8.28445 24.9645 8.05345C24.9679 7.82245 24.9249 7.59312 24.838 7.37904C24.7512 7.16497 24.6223 6.97049 24.4589 6.80713C24.2955 6.64377 24.1011 6.51485 23.887 6.428C23.6729 6.34115 23.4436 6.29813 23.2126 6.3015C22.9816 6.30487 22.7536 6.35455 22.5422 6.44761C22.3307 6.54066 22.1401 6.6752 21.9815 6.84325C21.6732 7.17008 21.5044 7.6042 21.511 8.05345C21.5175 8.5027 21.6989 8.93172 22.0166 9.24942C22.3343 9.56712 22.7633 9.7485 23.2126 9.75505C23.6618 9.7616 24.096 9.59281 24.4228 9.2845V9.2845Z" fill="white"/>
</svg>
