<svg width="28" height="28" viewBox="0 0 28 28" fill="none" xmlns="http://www.w3.org/2000/svg">
<g clip-path="url(#clip0_1701_1284)">
<path fill-rule="evenodd" clip-rule="evenodd" d="M20.3175 16.779C19.9698 16.6052 18.2653 15.7675 17.948 15.6509C17.6307 15.5354 17.3997 15.4782 17.1675 15.8259C16.9365 16.1712 16.2727 16.9529 16.0708 17.1839C15.8678 17.416 15.666 17.444 15.3195 17.2714C14.973 17.0964 13.8553 16.7312 12.5312 15.5505C11.501 14.6312 10.8045 13.496 10.6027 13.1484C10.4008 12.8019 10.5805 12.614 10.7543 12.4414C10.9107 12.2862 11.1008 12.0365 11.2747 11.8347C11.4485 11.6317 11.5057 11.487 11.6212 11.2549C11.7378 11.0239 11.6795 10.822 11.592 10.6482C11.5057 10.4744 10.8127 8.76755 10.5233 8.07338C10.2422 7.39788 9.95633 7.49005 9.744 7.47838C9.541 7.46905 9.31 7.46671 9.079 7.46671C8.848 7.46671 8.47233 7.55305 8.155 7.90071C7.8365 8.24721 6.94167 9.08605 6.94167 10.7929C6.94167 12.4985 8.183 14.147 8.35683 14.3792C8.53067 14.6102 10.801 18.1125 14.2788 19.614C15.1072 19.971 15.7523 20.1845 16.2552 20.3432C17.0858 20.608 17.8418 20.5707 18.4392 20.4809C19.1042 20.3817 20.4902 19.642 20.7795 18.8324C21.0677 18.0227 21.0677 17.3285 20.9813 17.1839C20.895 17.0392 20.664 16.9529 20.3163 16.779H20.3175ZM13.9918 25.4159H13.9872C11.9215 25.4163 9.89377 24.861 8.1165 23.8082L7.6965 23.5585L3.33083 24.7042L4.49633 20.4482L4.22217 20.0119C3.06733 18.1736 2.45618 16.0461 2.45933 13.8752C2.46167 7.51688 7.63467 2.34388 13.9965 2.34388C17.0765 2.34388 19.9722 3.54555 22.1492 5.72488C23.2229 6.79422 24.074 8.06587 24.6532 9.46626C25.2323 10.8666 25.528 12.368 25.5232 13.8834C25.5208 20.2417 20.3478 25.4159 13.9918 25.4159ZM23.8058 4.06938C22.5204 2.77546 20.9909 1.74951 19.3061 1.05098C17.6213 0.352456 15.8146 -0.00475562 13.9907 4.78071e-05C6.34433 4.78071e-05 0.119 6.22421 0.116667 13.874C0.113124 16.3086 0.75177 18.701 1.96817 20.8099L0 28L7.35467 26.0704C9.38919 27.1789 11.6691 27.7597 13.986 27.7597H13.9918C21.6382 27.7597 27.8635 21.5355 27.8658 13.8845C27.8715 12.0614 27.5156 10.2552 26.8187 8.57042C26.1218 6.88567 25.0978 5.35583 23.8058 4.06938Z" fill="white"/>
</g>
<defs>
<clipPath id="clip0_1701_1284">
<rect width="28" height="28" fill="white"/>
</clipPath>
</defs>
</svg>
