<svg width="41" height="43" viewBox="0 0 41 43" fill="none" xmlns="http://www.w3.org/2000/svg">
<path d="M13.2706 30.3533C14.042 30.3533 14.6673 29.4861 14.6673 28.4162C14.6673 27.3464 14.042 26.4791 13.2706 26.4791C12.4993 26.4791 11.874 27.3464 11.874 28.4162C11.874 29.4861 12.4993 30.3533 13.2706 30.3533Z" fill="#131619"/>
<path d="M27.2365 30.3533C28.0078 30.3533 28.6331 29.4861 28.6331 28.4162C28.6331 27.3464 28.0078 26.4791 27.2365 26.4791C26.4651 26.4791 25.8398 27.3464 25.8398 28.4162C25.8398 29.4861 26.4651 30.3533 27.2365 30.3533Z" fill="#131619"/>
<path d="M24.4427 32.2918C24.3509 32.2918 24.26 32.3084 24.1752 32.3408C24.0904 32.3733 24.0133 32.4209 23.9484 32.4809C23.8835 32.5409 23.8321 32.6122 23.797 32.6906C23.7619 32.7691 23.7439 32.8531 23.744 32.938C23.744 34.7194 22.1783 36.1675 20.2521 36.1675C18.3259 36.1675 16.7602 34.7194 16.7602 32.938C16.7602 32.7666 16.6865 32.6023 16.5555 32.4811C16.4245 32.3599 16.2468 32.2918 16.0615 32.2918C15.8762 32.2918 15.6985 32.3599 15.5674 32.4811C15.4364 32.6023 15.3628 32.7666 15.3628 32.938C15.3628 35.4304 17.5557 37.4584 20.2506 37.4584C22.9455 37.4584 25.1384 35.4304 25.1384 32.938C25.1392 32.8532 25.1218 32.7691 25.0871 32.6905C25.0525 32.612 25.0013 32.5406 24.9366 32.4805C24.8719 32.4203 24.7949 32.3727 24.7101 32.3403C24.6253 32.308 24.5344 32.2915 24.4427 32.2918V32.2918Z" fill="#131619"/>
<path d="M37.0124 21.9587H36.3137V13.5626C36.3122 12.3642 35.7967 11.2152 34.8804 10.3678C33.9641 9.52039 32.7218 9.04367 31.4259 9.04221H30.7272V5.81275C30.7272 2.60809 27.9079 0 24.4421 0H16.0623C12.5964 0 9.77712 2.6074 9.77712 5.81275V9.04221H9.07843C7.78259 9.04367 6.54027 9.52039 5.62397 10.3678C4.70767 11.2152 4.1922 12.3642 4.19062 13.5626V21.9587H3.49193C2.56612 21.9596 1.6785 22.3001 1.02385 22.9056C0.369202 23.511 0.000985855 24.3319 0 25.1881V41.9788C0 42.3364 0.312099 42.625 0.698685 42.625H39.8042C39.896 42.6251 39.9869 42.6084 40.0717 42.576C40.1565 42.5436 40.2335 42.496 40.2984 42.4359C40.3633 42.3759 40.4148 42.3047 40.4499 42.2262C40.485 42.1478 40.503 42.0637 40.5029 41.9788V25.1874C40.5027 24.3313 40.1349 23.5102 39.4804 22.9048C38.8258 22.2993 37.9381 21.959 37.0124 21.9587ZM16.063 1.29233H24.4428C26.6714 1.29233 28.5343 2.68731 29.1213 4.57621C28.7586 4.81939 28.4323 5.08529 28.1381 5.35809C27.4722 5.97395 26.947 6.45961 25.8402 6.45961C24.7333 6.45961 24.2059 5.97257 23.5408 5.35671C22.8272 4.69746 21.94 3.87631 20.2537 3.87631C18.5673 3.87631 17.6802 4.69746 16.9666 5.35671C16.3007 5.97257 15.774 6.45961 14.6672 6.45961C13.5603 6.45961 13.0344 5.97395 12.3693 5.35671C12.0735 5.08392 11.7488 4.81939 11.386 4.57621C11.9715 2.68731 13.8352 1.29233 16.063 1.29233ZM11.1752 6.08899C11.243 6.1503 11.3115 6.2061 11.3808 6.27085C12.0944 6.92873 12.9808 7.74987 14.6664 7.74987C16.3521 7.74987 17.2399 6.92873 17.9535 6.26948C18.6194 5.65362 19.1461 5.16658 20.2529 5.16658C21.3598 5.16658 21.8872 5.65362 22.5523 6.26948C23.2659 6.92873 24.153 7.74987 25.8394 7.74987C27.5258 7.74987 28.4122 6.93011 29.125 6.27085C29.1943 6.2061 29.2628 6.1503 29.3306 6.08899V9.04152H11.1752V6.08899ZM9.07992 10.3332H31.4259C32.3517 10.3341 33.2394 10.6746 33.894 11.2801C34.5487 11.8855 34.9169 12.7064 34.9179 13.5626V16.0777C34.4862 16.3383 34.0862 16.6411 33.7246 16.9808C33.0587 17.5981 32.5335 18.0837 31.4267 18.0837C30.3198 18.0837 29.7924 17.5967 29.1273 16.9808C28.4137 16.3216 27.5265 15.5004 25.8402 15.5004C24.1538 15.5004 23.2667 16.3216 22.5531 16.9808C21.8872 17.5967 21.3605 18.0837 20.2537 18.0837C19.1468 18.0837 18.6194 17.5967 17.9543 16.9808C17.2407 16.3216 16.3535 15.5004 14.6672 15.5004C12.9808 15.5004 12.0937 16.3216 11.3801 16.9808C10.7142 17.5967 10.1875 18.0837 9.08067 18.0837C7.97454 18.0837 7.44792 17.5981 6.78276 16.9822C6.42066 16.6424 6.02067 16.339 5.58948 16.077V13.5626C5.58987 12.7065 5.95769 11.8855 6.61215 11.2799C7.26661 10.6744 8.15418 10.3339 9.07992 10.3332ZM5.58873 17.7145C5.65652 17.7765 5.72504 17.8309 5.79432 17.8957C6.5079 18.5549 7.39578 19.3747 9.07992 19.3747C10.7656 19.3747 11.6534 18.5535 12.367 17.8943C13.0329 17.2784 13.5596 16.7914 14.6664 16.7914C15.7733 16.7914 16.3007 17.2784 16.9658 17.8943C17.6794 18.5535 18.5665 19.3747 20.2529 19.3747C21.9393 19.3747 22.8264 18.5535 23.54 17.8943C24.2059 17.2784 24.7326 16.7914 25.8394 16.7914C26.9463 16.7914 27.4737 17.2784 28.1388 17.8943C28.8524 18.5535 29.7395 19.3747 31.4259 19.3747C33.1123 19.3747 33.9987 18.5535 34.7115 17.8957C34.7808 17.8309 34.8493 17.7765 34.9171 17.7145V21.958H5.58873V17.7145ZM39.1077 41.3327H1.39886V25.1874C1.39945 24.6738 1.62032 24.1814 2.013 23.8183C2.40568 23.4551 2.93809 23.2509 3.49342 23.2503H37.0124C37.5677 23.2509 38.1002 23.4551 38.4928 23.8183C38.8855 24.1814 39.1064 24.6738 39.107 25.1874V41.3327H39.1077Z" fill="#131619"/>
</svg>
