<svg width="31" height="198" viewBox="0 0 31 198" fill="none" xmlns="http://www.w3.org/2000/svg">
<path fill-rule="evenodd" clip-rule="evenodd" d="M9.64262 168.377C11.1577 168.307 11.6408 168.292 15.5003 168.292C19.3598 168.292 19.8429 168.308 21.3567 168.377C22.8706 168.445 23.9039 168.687 24.8081 169.037C25.7549 169.395 26.6138 169.954 27.3242 170.677C28.0476 171.386 28.6056 172.244 28.9621 173.192C29.3134 174.096 29.5537 175.13 29.6234 176.641C29.6932 178.159 29.7087 178.642 29.7087 182.5C29.7087 186.359 29.6919 186.843 29.6234 188.358C29.5549 189.869 29.3134 190.902 28.9621 191.806C28.6056 192.755 28.0466 193.614 27.3242 194.324C26.6138 195.047 25.7549 195.605 24.8081 195.962C23.9039 196.313 22.8706 196.553 21.3593 196.623C19.8429 196.693 19.3598 196.708 15.5003 196.708C11.6408 196.708 11.1577 196.692 9.64262 196.623C8.13137 196.555 7.09803 196.313 6.19387 195.962C5.24568 195.605 4.38659 195.046 3.67641 194.324C2.95357 193.614 2.39419 192.756 2.03728 191.808C1.68724 190.904 1.44699 189.87 1.37724 188.359C1.30749 186.841 1.29199 186.358 1.29199 182.5C1.29199 178.64 1.30878 178.157 1.37724 176.644C1.4457 175.13 1.68724 174.096 2.03728 173.192C2.39472 172.244 2.95452 171.386 3.6777 170.676C4.38688 169.953 5.2451 169.394 6.19258 169.037C7.09674 168.687 8.13008 168.447 9.64132 168.377H9.64262ZM21.2418 170.934C19.7434 170.866 19.2939 170.852 15.5003 170.852C11.7067 170.852 11.2572 170.866 9.75887 170.934C8.37291 170.998 7.62116 171.229 7.11999 171.424C6.45737 171.682 5.98333 171.988 5.48603 172.486C5.01463 172.944 4.65185 173.503 4.42428 174.12C4.22924 174.621 3.99803 175.373 3.93474 176.759C3.86628 178.257 3.85208 178.706 3.85208 182.5C3.85208 186.294 3.86628 186.743 3.93474 188.241C3.99803 189.627 4.22924 190.379 4.42428 190.88C4.65162 191.496 5.01458 192.056 5.48603 192.514C5.94458 192.986 6.50387 193.349 7.11999 193.576C7.62116 193.771 8.37291 194.002 9.75887 194.066C11.2572 194.134 11.7054 194.148 15.5003 194.148C19.2952 194.148 19.7434 194.134 21.2418 194.066C22.6277 194.002 23.3795 193.771 23.8807 193.576C24.5433 193.318 25.0173 193.012 25.5146 192.514C25.9861 192.056 26.349 191.496 26.5764 190.88C26.7714 190.379 27.0026 189.627 27.0659 188.241C27.1344 186.743 27.1486 186.294 27.1486 182.5C27.1486 178.706 27.1344 178.257 27.0659 176.759C27.0026 175.373 26.7714 174.621 26.5764 174.12C26.318 173.457 26.0119 172.983 25.5146 172.486C25.056 172.014 24.4977 171.652 23.8807 171.424C23.3795 171.229 22.6277 170.998 21.2418 170.934V170.934ZM13.6855 186.88C14.6991 187.302 15.8276 187.359 16.8784 187.041C17.9293 186.723 18.8372 186.051 19.4472 185.138C20.0571 184.225 20.3312 183.129 20.2227 182.036C20.1142 180.944 19.6298 179.923 18.8522 179.148C18.3565 178.653 17.7571 178.273 17.0973 178.037C16.4374 177.802 15.7334 177.715 15.036 177.784C14.3385 177.852 13.6651 178.075 13.064 178.435C12.4629 178.796 11.9492 179.285 11.5598 179.867C11.1705 180.45 10.9152 181.112 10.8122 181.805C10.7093 182.498 10.7614 183.206 10.9647 183.876C11.168 184.547 11.5174 185.164 11.9879 185.684C12.4584 186.203 13.0382 186.612 13.6855 186.88ZM10.3362 177.336C11.0144 176.658 11.8195 176.12 12.7055 175.753C13.5916 175.386 14.5413 175.197 15.5003 175.197C16.4594 175.197 17.4091 175.386 18.2951 175.753C19.1812 176.12 19.9862 176.658 20.6644 177.336C21.3426 178.014 21.8805 178.819 22.2475 179.705C22.6145 180.591 22.8034 181.541 22.8034 182.5C22.8034 183.459 22.6145 184.409 22.2475 185.295C21.8805 186.181 21.3426 186.986 20.6644 187.664C19.2948 189.034 17.4372 189.803 15.5003 189.803C13.5634 189.803 11.7058 189.034 10.3362 187.664C8.96664 186.294 8.19721 184.437 8.19721 182.5C8.19721 180.563 8.96664 178.706 10.3362 177.336V177.336ZM24.4232 176.284C24.5912 176.126 24.7257 175.935 24.8188 175.724C24.9119 175.512 24.9615 175.284 24.9649 175.053C24.9683 174.822 24.9253 174.593 24.8384 174.379C24.7516 174.165 24.6226 173.97 24.4593 173.807C24.2959 173.644 24.1014 173.515 23.8874 173.428C23.6733 173.341 23.444 173.298 23.213 173.301C22.982 173.305 22.754 173.355 22.5425 173.448C22.3311 173.541 22.1404 173.675 21.9819 173.843C21.6736 174.17 21.5048 174.604 21.5114 175.053C21.5179 175.503 21.6993 175.932 22.017 176.249C22.3347 176.567 22.7637 176.748 23.213 176.755C23.6622 176.762 24.0963 176.593 24.4232 176.284V176.284Z" fill="white"/>
</svg>
