<svg width="31" height="198" viewBox="0 0 31 198" fill="none" xmlns="http://www.w3.org/2000/svg">
<g clip-path="url(#clip0_1766_3934)">
<path fill-rule="evenodd" clip-rule="evenodd" d="M0 182.587C0 190.293 5.59679 196.701 12.9167 198V186.805H9.04167V182.5H12.9167V179.055C12.9167 175.18 15.4135 173.028 18.9449 173.028C20.0635 173.028 21.2699 173.2 22.3885 173.372V177.333H20.4083C18.5135 177.333 18.0833 178.28 18.0833 179.487V182.5H22.2167L21.5282 186.805H18.0833V198C25.4032 196.701 31 190.294 31 182.587C31 174.014 24.025 167 15.5 167C6.975 167 0 174.014 0 182.587Z" fill="white"/>
</g>
<defs>
<clipPath id="clip0_1766_3934">
<rect width="31" height="31" fill="white" transform="translate(0 167)"/>
</clipPath>
</defs>
</svg>
