<svg width="24" height="209" viewBox="0 0 24 209" fill="none" xmlns="http://www.w3.org/2000/svg">
<path d="M20 193H14.388L15.511 189.633C15.713 189.025 15.611 188.351 15.236 187.831C14.861 187.311 14.253 187 13.612 187H12C11.703 187 11.422 187.132 11.231 187.36L6.531 193H4C2.897 193 2 193.897 2 195V204C2 205.103 2.897 206 4 206H17.307C17.7139 205.999 18.1108 205.874 18.4452 205.642C18.7797 205.41 19.0359 205.083 19.18 204.702L21.937 197.351C21.9789 197.239 22.0002 197.12 22 197V195C22 193.897 21.103 193 20 193ZM4 195H6V204H4V195ZM20 196.819L17.307 204H8V194.362L12.468 189H13.614L12.052 193.683C12.0013 193.833 11.9871 193.994 12.0107 194.15C12.0343 194.307 12.095 194.456 12.1877 194.585C12.2803 194.714 12.4024 194.819 12.5436 194.891C12.6849 194.963 12.8414 195 13 195H20V196.819Z" fill="black"/>
</svg>
