<svg width="28" height="196" viewBox="0 0 28 196" fill="none" xmlns="http://www.w3.org/2000/svg">
<g clip-path="url(#clip0_1766_3936)">
<path fill-rule="evenodd" clip-rule="evenodd" d="M20.3175 184.779C19.9698 184.605 18.2653 183.768 17.948 183.651C17.6307 183.535 17.3997 183.478 17.1675 183.826C16.9365 184.171 16.2727 184.953 16.0708 185.184C15.8678 185.416 15.666 185.444 15.3195 185.271C14.973 185.096 13.8553 184.731 12.5312 183.551C11.501 182.631 10.8045 181.496 10.6027 181.148C10.4008 180.802 10.5805 180.614 10.7543 180.441C10.9107 180.286 11.1008 180.037 11.2747 179.835C11.4485 179.632 11.5057 179.487 11.6212 179.255C11.7378 179.024 11.6795 178.822 11.592 178.648C11.5057 178.474 10.8127 176.768 10.5233 176.073C10.2422 175.398 9.95633 175.49 9.744 175.478C9.541 175.469 9.31 175.467 9.079 175.467C8.848 175.467 8.47233 175.553 8.155 175.901C7.8365 176.247 6.94167 177.086 6.94167 178.793C6.94167 180.499 8.183 182.147 8.35683 182.379C8.53067 182.61 10.801 186.113 14.2788 187.614C15.1072 187.971 15.7523 188.185 16.2552 188.343C17.0858 188.608 17.8418 188.571 18.4392 188.481C19.1042 188.382 20.4902 187.642 20.7795 186.832C21.0677 186.023 21.0677 185.329 20.9813 185.184C20.895 185.039 20.664 184.953 20.3163 184.779H20.3175ZM13.9918 193.416H13.9872C11.9215 193.416 9.89377 192.861 8.1165 191.808L7.6965 191.559L3.33083 192.704L4.49633 188.448L4.22217 188.012C3.06733 186.174 2.45618 184.046 2.45933 181.875C2.46167 175.517 7.63467 170.344 13.9965 170.344C17.0765 170.344 19.9722 171.546 22.1492 173.725C23.2229 174.794 24.074 176.066 24.6532 177.466C25.2323 178.867 25.528 180.368 25.5232 181.883C25.5208 188.242 20.3478 193.416 13.9918 193.416V193.416ZM23.8058 172.069C22.5204 170.775 20.9909 169.749 19.3061 169.051C17.6213 168.352 15.8146 167.995 13.9907 168C6.34433 168 0.119 174.224 0.116667 181.874C0.113124 184.309 0.75177 186.701 1.96817 188.81L0 196L7.35467 194.07C9.38919 195.179 11.6691 195.76 13.986 195.76H13.9918C21.6382 195.76 27.8635 189.536 27.8658 181.885C27.8715 180.061 27.5156 178.255 26.8187 176.57C26.1218 174.886 25.0978 173.356 23.8058 172.069" fill="white"/>
</g>
<defs>
<clipPath id="clip0_1766_3936">
<rect width="28" height="28" fill="white" transform="translate(0 168)"/>
</clipPath>
</defs>
</svg>
