<svg width="31" height="198" viewBox="0 0 31 198" fill="none" xmlns="http://www.w3.org/2000/svg">
<path fill-rule="evenodd" clip-rule="evenodd" d="M9.64213 168.377C11.1573 168.307 11.6403 168.292 15.4998 168.292C19.3593 168.292 19.8424 168.308 21.3563 168.377C22.8701 168.445 23.9034 168.687 24.8076 169.037C25.7544 169.395 26.6133 169.954 27.3237 170.677C28.0471 171.387 28.6051 172.244 28.9616 173.192C29.3129 174.096 29.5532 175.13 29.6229 176.641C29.6927 178.159 29.7082 178.642 29.7082 182.5C29.7082 186.36 29.6914 186.843 29.6229 188.358C29.5545 189.869 29.3129 190.902 28.9616 191.806C28.6051 192.755 28.0462 193.614 27.3237 194.324C26.6133 195.047 25.7544 195.605 24.8076 195.962C23.9034 196.313 22.8701 196.553 21.3588 196.623C19.8424 196.693 19.3593 196.708 15.4998 196.708C11.6403 196.708 11.1573 196.692 9.64213 196.623C8.13088 196.555 7.09754 196.313 6.19338 195.962C5.24519 195.605 4.3861 195.046 3.67592 194.324C2.95308 193.614 2.3937 192.756 2.0368 191.808C1.68675 190.904 1.4465 189.87 1.37675 188.359C1.307 186.841 1.2915 186.358 1.2915 182.5C1.2915 178.641 1.3083 178.157 1.37675 176.644C1.44521 175.13 1.68675 174.096 2.0368 173.192C2.39423 172.244 2.95403 171.386 3.67721 170.676C4.38639 169.953 5.24461 169.394 6.19209 169.037C7.09625 168.687 8.12959 168.447 9.64084 168.377H9.64213ZM21.2413 170.934C19.743 170.866 19.2935 170.852 15.4998 170.852C11.7062 170.852 11.2567 170.866 9.75838 170.934C8.37242 170.998 7.62067 171.229 7.1195 171.424C6.45688 171.682 5.98284 171.988 5.48555 172.486C5.01414 172.944 4.65136 173.503 4.4238 174.12C4.22875 174.621 3.99755 175.373 3.93425 176.759C3.8658 178.257 3.85159 178.706 3.85159 182.5C3.85159 186.294 3.8658 186.743 3.93425 188.241C3.99755 189.627 4.22875 190.379 4.4238 190.88C4.65113 191.496 5.01409 192.056 5.48555 192.514C5.94409 192.986 6.50338 193.349 7.1195 193.576C7.62067 193.771 8.37242 194.002 9.75838 194.066C11.2567 194.134 11.7049 194.148 15.4998 194.148C19.2948 194.148 19.743 194.134 21.2413 194.066C22.6273 194.002 23.379 193.771 23.8802 193.576C24.5428 193.318 25.0168 193.012 25.5141 192.514C25.9856 192.056 26.3485 191.496 26.5759 190.88C26.7709 190.379 27.0021 189.627 27.0654 188.241C27.1339 186.743 27.1481 186.294 27.1481 182.5C27.1481 178.706 27.1339 178.257 27.0654 176.759C27.0021 175.373 26.7709 174.621 26.5759 174.12C26.3175 173.457 26.0114 172.983 25.5141 172.486C25.0555 172.014 24.4972 171.652 23.8802 171.424C23.379 171.229 22.6273 170.998 21.2413 170.934V170.934ZM13.685 186.88C14.6986 187.302 15.8271 187.359 16.878 187.041C17.9288 186.723 18.8367 186.051 19.4467 185.138C20.0566 184.225 20.3307 183.129 20.2222 182.036C20.1137 180.944 19.6293 179.923 18.8517 179.148C18.356 178.653 17.7567 178.273 17.0968 178.037C16.4369 177.802 15.7329 177.715 15.0355 177.784C14.3381 177.852 13.6646 178.075 13.0635 178.435C12.4624 178.796 11.9487 179.285 11.5594 179.867C11.17 180.45 10.9147 181.112 10.8118 181.805C10.7088 182.498 10.7609 183.206 10.9642 183.876C11.1675 184.547 11.517 185.164 11.9874 185.684C12.4579 186.203 13.0377 186.612 13.685 186.88ZM10.3358 177.336C11.0139 176.658 11.819 176.12 12.7051 175.753C13.5911 175.386 14.5408 175.197 15.4998 175.197C16.4589 175.197 17.4086 175.386 18.2946 175.753C19.1807 176.12 19.9858 176.658 20.6639 177.336C21.3421 178.014 21.88 178.819 22.247 179.705C22.6141 180.591 22.803 181.541 22.803 182.5C22.803 183.459 22.6141 184.409 22.247 185.295C21.88 186.181 21.3421 186.986 20.6639 187.664C19.2943 189.034 17.4367 189.803 15.4998 189.803C13.5629 189.803 11.7054 189.034 10.3358 187.664C8.96615 186.294 8.19672 184.437 8.19672 182.5C8.19672 180.563 8.96615 178.706 10.3358 177.336V177.336ZM24.4227 176.285C24.5907 176.126 24.7253 175.935 24.8183 175.724C24.9114 175.512 24.961 175.284 24.9644 175.053C24.9678 174.822 24.9248 174.593 24.8379 174.379C24.7511 174.165 24.6221 173.97 24.4588 173.807C24.2954 173.644 24.101 173.515 23.8869 173.428C23.6728 173.341 23.4435 173.298 23.2125 173.302C22.9815 173.305 22.7535 173.355 22.542 173.448C22.3306 173.541 22.1399 173.675 21.9814 173.843C21.6731 174.17 21.5043 174.604 21.5109 175.053C21.5174 175.503 21.6988 175.932 22.0165 176.249C22.3342 176.567 22.7632 176.749 23.2125 176.755C23.6617 176.762 24.0958 176.593 24.4227 176.285V176.285Z" fill="white"/>
</svg>
