<svg width="24" height="418" viewBox="0 0 24 418" fill="none" xmlns="http://www.w3.org/2000/svg">
<path d="M20 402H14.388L15.511 398.633C15.713 398.025 15.611 397.351 15.236 396.831C14.861 396.311 14.253 396 13.612 396H12C11.703 396 11.422 396.132 11.231 396.36L6.531 402H4C2.897 402 2 402.897 2 404V413C2 414.103 2.897 415 4 415H17.307C17.7139 414.999 18.1108 414.874 18.4452 414.642C18.7797 414.41 19.0359 414.083 19.18 413.702L21.937 406.351C21.9789 406.239 22.0002 406.12 22 406V404C22 402.897 21.103 402 20 402ZM4 404H6V413H4V404ZM20 405.819L17.307 413H8V403.362L12.468 398H13.614L12.052 402.683C12.0013 402.833 11.9871 402.994 12.0107 403.15C12.0343 403.307 12.095 403.456 12.1877 403.585C12.2803 403.714 12.4024 403.819 12.5436 403.891C12.6849 403.963 12.8414 404 13 404H20V405.819Z" fill="black"/>
</svg>
