<svg width="355" height="355" viewBox="0 0 355 355" fill="none" xmlns="http://www.w3.org/2000/svg">
<path fill-rule="evenodd" clip-rule="evenodd" d="M56.4339 169.457C49.7634 116.928 86.9409 68.9347 139.47 62.2642L185.388 56.4334C237.918 49.7629 285.91 86.9404 292.581 139.47C299.251 192 262.074 239.992 209.544 246.663L204.953 247.246L210.783 293.163C210.783 293.163 71.4275 287.531 56.4339 169.457ZM192.04 98.7939C199.366 102.423 205.387 109.05 206.626 118.804C207.94 129.155 204.728 137.295 198.556 142.811C196.116 144.958 193.342 146.693 190.343 147.947L191.62 157.996C191.784 159.288 191.692 160.6 191.349 161.857C191.006 163.113 190.419 164.29 189.621 165.32C188.823 166.349 187.831 167.212 186.7 167.858C185.569 168.504 184.322 168.921 183.03 169.085C181.737 169.249 180.426 169.157 179.169 168.814C177.912 168.471 176.736 167.884 175.706 167.087C174.676 166.289 173.814 165.296 173.168 164.165C172.522 163.034 172.105 161.787 171.941 160.495L169.611 142.148C169.293 139.651 169.936 137.128 171.41 135.088C172.884 133.048 175.078 131.645 177.547 131.162C181.15 130.458 183.814 129.386 185.334 128.027C185.95 127.495 186.415 126.811 186.682 126.043C186.976 125.205 187.257 123.743 186.946 121.297C186.685 119.243 185.679 117.778 183.225 116.557C180.437 115.178 176.144 114.443 171.158 114.916C166.232 115.382 161.585 116.945 158.291 119.09C154.992 121.242 153.949 123.32 153.761 124.777C153.625 126.092 153.229 127.365 152.594 128.524C151.959 129.683 151.1 130.703 150.065 131.525C149.031 132.347 147.843 132.954 146.571 133.31C145.299 133.667 143.968 133.765 142.658 133.601C141.347 133.436 140.082 133.011 138.938 132.351C137.794 131.69 136.793 130.808 135.994 129.756C135.195 128.704 134.615 127.502 134.287 126.223C133.959 124.943 133.89 123.611 134.084 122.304C135.223 113.221 141.079 106.638 147.463 102.475C153.864 98.296 161.709 95.8801 169.29 95.164C176.811 94.4489 185.054 95.3218 192.04 98.7939V98.7939ZM188.147 209.388C191.627 208.946 194.788 207.14 196.936 204.367C199.084 201.594 200.042 198.082 199.601 194.602C199.159 191.123 197.353 187.961 194.58 185.813C191.807 183.666 188.295 182.707 184.815 183.149C181.336 183.591 178.175 185.397 176.027 188.17C173.879 190.942 172.92 194.455 173.362 197.934C173.804 201.414 175.61 204.575 178.383 206.723C181.155 208.871 184.668 209.829 188.147 209.388V209.388Z" fill="#FFFAE9"/>
</svg>
