<svg width="116" height="116" viewBox="0 0 116 116" fill="none" xmlns="http://www.w3.org/2000/svg">
<path d="M58.0001 0L62.3343 29.4886L75.1439 2.59126L70.618 32.0509L90.7643 10.1348L77.7806 36.9479L103.473 21.9603L83.1854 43.7443L112.142 37.017L86.3525 51.8365L116 53.9669L87.0001 60.505L114.704 71.3043L85.0712 68.9804L108.37 87.4886L80.737 76.5087L97.5607 101.082L74.3822 82.4212L83.2358 110.876L66.572 86.1929L66.6689 116L58.0001 87.4886L49.3313 116L49.4282 86.1929L32.7642 110.876L41.618 82.4212L18.4394 101.082L35.2634 76.5087L7.6297 87.4886L30.929 68.9804L1.29561 71.3043L29 60.505L0 53.9669L29.6479 51.8365L3.85791 37.017L32.8149 43.7443L12.5267 21.9603L38.2196 36.9479L25.2359 10.1348L45.3822 32.0509L40.8563 2.59126L53.6659 29.4886L58.0001 0Z" fill="#FCCC24"/>
</svg>
