<svg width="90" height="90" viewBox="0 0 90 90" fill="none" xmlns="http://www.w3.org/2000/svg">
<path d="M39.5218 4.96857C40.5008 -1.28046 49.4992 -1.28046 50.4782 4.96858C51.2226 9.72074 57.2507 11.3359 60.2715 7.59268C64.2438 2.67035 72.0367 7.16954 69.7599 13.0708C68.0286 17.5586 72.4414 21.9714 76.9291 20.2401C82.8305 17.9633 87.3297 25.7562 82.4073 29.7285C78.6641 32.7493 80.2793 38.7774 85.0314 39.5218C91.2805 40.5008 91.2805 49.4992 85.0314 50.4782C80.2793 51.2226 78.6641 57.2507 82.4073 60.2715C87.3297 64.2438 82.8305 72.0367 76.9291 69.7599C72.4414 68.0286 68.0286 72.4414 69.7599 76.9291C72.0367 82.8305 64.2438 87.3297 60.2715 82.4073C57.2507 78.6641 51.2226 80.2793 50.4782 85.0314C49.4992 91.2805 40.5008 91.2805 39.5218 85.0314C38.7774 80.2793 32.7493 78.6641 29.7285 82.4073C25.7562 87.3297 17.9633 82.8305 20.2401 76.9291C21.9714 72.4414 17.5586 68.0286 13.0709 69.7599C7.16954 72.0367 2.67035 64.2438 7.59268 60.2715C11.3359 57.2507 9.72074 51.2226 4.96857 50.4782C-1.28046 49.4992 -1.28046 40.5008 4.96858 39.5218C9.72074 38.7774 11.3359 32.7493 7.59268 29.7285C2.67035 25.7562 7.16954 17.9633 13.0708 20.24C17.5586 21.9714 21.9714 17.5586 20.2401 13.0709C17.9633 7.16954 25.7562 2.67035 29.7285 7.59268C32.7493 11.3359 38.7774 9.72074 39.5218 4.96857Z" fill="#FCCC24"/>
</svg>
