<svg width="21" height="20" viewBox="0 0 21 20" fill="none" xmlns="http://www.w3.org/2000/svg">
<path fill-rule="evenodd" clip-rule="evenodd" d="M14.8328 11.985C14.579 11.8608 13.3346 11.2625 13.103 11.1792C12.8713 11.0967 12.7027 11.0558 12.5332 11.3042C12.3645 11.5508 11.8799 12.1092 11.7325 12.2742C11.5843 12.44 11.437 12.46 11.184 12.3367C10.9311 12.2117 10.1151 11.9508 9.1484 11.1075C8.39632 10.4509 7.88784 9.64002 7.74049 9.39169C7.59315 9.14419 7.72431 9.01002 7.85122 8.88669C7.96535 8.77585 8.10418 8.59752 8.23109 8.45335C8.358 8.30835 8.39973 8.20502 8.48405 8.03919C8.56922 7.87419 8.52664 7.73002 8.46276 7.60585C8.39973 7.48169 7.89381 6.26252 7.68258 5.76669C7.47731 5.28419 7.26864 5.35003 7.11362 5.34169C6.96542 5.33503 6.79678 5.33336 6.62814 5.33336C6.4595 5.33336 6.18524 5.39503 5.95357 5.64336C5.72105 5.89086 5.06777 6.49002 5.06777 7.70919C5.06777 8.92752 5.97401 10.105 6.10092 10.2709C6.22783 10.4358 7.88529 12.9375 10.4243 14.01C11.029 14.265 11.5 14.4175 11.8671 14.5308C12.4735 14.72 13.0255 14.6933 13.4615 14.6292C13.947 14.5583 14.9589 14.03 15.1701 13.4517C15.3805 12.8733 15.3805 12.3775 15.3175 12.2742C15.2544 12.1708 15.0858 12.1092 14.832 11.985H14.8328ZM10.2148 18.1542H10.2114C8.70331 18.1544 7.22296 17.7578 5.92546 17.0058L5.61884 16.8275L2.43168 17.6458L3.28256 14.6058L3.0824 14.2942C2.23931 12.9811 1.79314 11.4615 1.79544 9.91085C1.79714 5.36919 5.5737 1.6742 10.2182 1.6742C12.4667 1.6742 14.5807 2.53253 16.17 4.08919C16.9539 4.85301 17.5753 5.76133 17.9981 6.7616C18.4209 7.76188 18.6368 8.83425 18.6332 9.91668C18.6315 14.4583 14.855 18.1542 10.2148 18.1542V18.1542ZM17.3795 2.9067C16.441 1.98247 15.3245 1.24965 14.0945 0.7507C12.8644 0.251754 11.5454 -0.00339687 10.2139 3.41479e-05C4.63169 3.41479e-05 0.0868761 4.44586 0.0851727 9.91002C0.082586 11.649 0.548831 13.3578 1.43686 14.8642L0 20L5.36929 18.6217C6.85459 19.4134 8.51905 19.8283 10.2105 19.8283H10.2148C15.797 19.8283 20.3418 15.3825 20.3435 9.91752C20.3476 8.61525 20.0878 7.32511 19.579 6.12172C19.0702 4.91833 18.3227 3.82559 17.3795 2.9067" fill="black"/>
</svg>
